<?xml version="1.0" encoding="utf-8"?>
<!-- Generator: Adobe Illustrator 18.0.0, SVG Export Plug-In . SVG Version: 6.00 Build 0)  -->
<!DOCTYPE svg PUBLIC "-//W3C//DTD SVG 1.1//EN" "http://www.w3.org/Graphics/SVG/1.1/DTD/svg11.dtd">
<svg version="1.1" id="Calque_1" xmlns="http://www.w3.org/2000/svg" xmlns:xlink="http://www.w3.org/1999/xlink" x="0px" y="0px"
	 viewBox="0 0 579 161" enable-background="new 0 0 579 161" xml:space="preserve">
<g>
	<g>
		<path d="M64.9,59.6v41.4H52.7V59.6h-5.2V48.2h5.2V28.9h12.2v19.4h9.5v11.4H64.9z"/>
		<path d="M81.6,48.2h12.2V53c2.2-2.3,4.2-4,6-4.8c1.8-0.9,3.9-1.4,6.3-1.4c3.2,0,6.6,1,10.1,3.1l-5.6,11.2
			c-2.3-1.7-4.6-2.5-6.8-2.5c-6.7,0-10,5-10,15.1v27.4H81.6V48.2z"/>
		<path d="M167.1,77.5h-37.9c0.3,4.3,1.7,7.8,4.2,10.4c2.5,2.5,5.7,3.8,9.6,3.8c3,0,5.5-0.7,7.5-2.2c2-1.4,4.2-4.1,6.7-8l10.3,5.7
			c-1.6,2.7-3.3,5-5,7c-1.8,1.9-3.7,3.5-5.7,4.8c-2,1.2-4.2,2.2-6.6,2.7c-2.4,0.6-4.9,0.9-7.6,0.9c-7.9,0-14.2-2.5-19-7.6
			c-4.8-5.1-7.2-11.9-7.2-20.3c0-8.4,2.3-15.1,6.9-20.3c4.7-5.1,10.8-7.6,18.5-7.6c7.8,0,13.9,2.5,18.4,7.4
			c4.5,4.9,6.7,11.7,6.7,20.4L167.1,77.5z M154.6,67.6c-1.7-6.5-5.8-9.8-12.3-9.8c-1.5,0-2.9,0.2-4.2,0.7c-1.3,0.5-2.5,1.1-3.6,2
			c-1.1,0.8-2,1.9-2.7,3.1s-1.3,2.5-1.7,4.1H154.6z"/>
		<path d="M216.1,48.2h12.3v52.8h-12.3v-5.5c-5,4.7-10.4,7-16.2,7c-7.3,0-13.3-2.6-18.1-7.9c-4.7-5.4-7.1-12.1-7.1-20.2
			c0-7.9,2.4-14.5,7.1-19.8c4.7-5.3,10.7-7.9,17.8-7.9c6.1,0,11.7,2.5,16.5,7.6V48.2z M187.1,74.5c0,5.1,1.4,9.2,4.1,12.4
			c2.8,3.2,6.3,4.8,10.5,4.8c4.5,0,8.2-1.6,11-4.7c2.8-3.2,4.2-7.3,4.2-12.3c0-5-1.4-9-4.2-12.3c-2.8-3.1-6.4-4.7-10.8-4.7
			c-4.2,0-7.7,1.6-10.5,4.8C188.5,65.8,187.1,69.8,187.1,74.5z"/>
		<path d="M271.1,57.2L261,62.6c-1.6-3.2-3.6-4.8-5.9-4.8c-1.1,0-2.1,0.4-2.9,1.1c-0.8,0.7-1.2,1.7-1.2,2.8c0,2,2.3,4,7.1,6
			c6.5,2.8,10.8,5.3,13.1,7.7c2.2,2.3,3.4,5.5,3.4,9.5c0,5.1-1.9,9.4-5.6,12.8c-3.7,3.3-8.1,4.9-13.2,4.9c-8.9,0-15.1-4.3-18.8-13
			l10.4-4.8c1.4,2.5,2.5,4.1,3.3,4.8c1.5,1.4,3.3,2.1,5.3,2.1c4.1,0,6.2-1.9,6.2-5.6c0-2.2-1.6-4.2-4.8-6.1
			c-1.2-0.6-2.5-1.2-3.7-1.8c-1.2-0.6-2.5-1.2-3.7-1.8c-3.5-1.7-6-3.5-7.5-5.2c-1.8-2.2-2.8-5-2.8-8.5c0-4.6,1.6-8.4,4.7-11.4
			c3.2-3,7.1-4.5,11.7-4.5C262.8,46.8,267.8,50.3,271.1,57.2z"/>
		<path d="M297.7,91.2l-23.8-43h14.2l16.2,30.4l15.1-30.4h13.8L291,129.8h-13.9L297.7,91.2z"/>
	</g>
	<g>
		<path d="M342.6,48.4c14.8,0,11.8-0.2,33.5,0.1c13,0.2,26.1,0.8,39,2c13.3,1.2,25.6,5.6,35.1,15.4c7.3,7.5,14,15.7,20.7,23.8
			c2.1,2.6,3.5,5.8,4.6,9c5.2,15.8-5.5,31.1-21.9,31.1c-41.7,0.1-83.3,0.1-125,0.1c-9.9,0-1,0-27.8,0l5.3-10.4
			c55.2,0,70.4,0,108.6,0c12.8,0,25.7,0,38.5-0.1c6.6-0.1,11.2-3.8,12.3-9.9c-1.7-0.1-3.5-0.1-5.2-0.1c-45.3,0-90.6-0.2-135.9-0.2
			c-4.8,0-7.3-0.2-13.2-0.2l3.4-6.9c61,0,93.7,0,146.5,0c1.2,0,2.8,0.1,5,0.1c-0.7-3.6-2.9-6.5-3.6-7.3
			c-5.6-6.3-10.9-12.2-16.8-18.2c-8-8.1-17.5-14.1-28.9-15.8c-6.7-1-13.5-1.4-20.3-1.5c-20.8-0.3-18.5-0.5-39.3-0.6
			c-9.5,0-17.4,0.1-19.9,0.2L342.6,48.4z"/>
	</g>
</g>
<g>
	<path d="M51.9,117.4H54l4,10.4l4-10.4h2.1l-4.9,12.4h-2.3L51.9,117.4z"/>
	<path d="M63.8,125.3c0-2.6,1.7-4.7,4.5-4.7c2.8,0,4.5,2.1,4.5,4.7c0,2.6-1.7,4.7-4.5,4.7C65.6,130.1,63.8,127.9,63.8,125.3z
		 M71.2,125.3c0-1.7-1-3.2-2.8-3.2c-1.8,0-2.8,1.5-2.8,3.2c0,1.7,1,3.2,2.8,3.2C70.2,128.6,71.2,127.1,71.2,125.3z"/>
	<path d="M75.6,132c0.6,0,1-0.2,1.3-0.9l0.5-1.2l-3.7-9.1h1.8l2.8,7l2.8-7h1.8l-4.4,10.7c-0.6,1.4-1.6,1.9-2.9,1.9
		c-0.3,0-0.8-0.1-1-0.1l0.3-1.5C75.1,131.9,75.4,132,75.6,132z"/>
	<path d="M89.8,128.9c-0.7,0.8-1.7,1.2-2.9,1.2c-1.5,0-3.1-1-3.1-3c0-2,1.6-2.9,3.1-2.9c1.2,0,2.3,0.4,2.9,1.2v-1.5
		c0-1.1-0.9-1.8-2.2-1.8c-1,0-1.9,0.4-2.7,1.2l-0.7-1.2c1-1,2.2-1.5,3.7-1.5c2,0,3.6,0.9,3.6,3.1v6.1h-1.7V128.9z M89.8,126.3
		c-0.5-0.7-1.4-1-2.3-1c-1.2,0-2.1,0.7-2.1,1.8s0.9,1.8,2.1,1.8c0.9,0,1.8-0.4,2.3-1V126.3z"/>
	<path d="M94.9,130.9c0.7,0.9,1.7,1.2,2.9,1.2c1.4,0,2.8-0.7,2.8-2.6v-1.2c-0.7,0.9-1.7,1.5-3,1.5c-2.3,0-4-1.7-4-4.7
		c0-2.9,1.7-4.6,4-4.6c1.2,0,2.2,0.6,3,1.5v-1.3h1.7v8.6c0,3.1-2.3,4-4.5,4c-1.5,0-2.6-0.3-3.7-1.3L94.9,130.9z M100.6,123.4
		c-0.5-0.7-1.5-1.3-2.5-1.3c-1.7,0-2.7,1.3-2.7,3.1c0,1.9,1,3.2,2.7,3.2c1,0,2-0.6,2.5-1.3V123.4z"/>
	<path d="M108.9,120.6c2.7,0,4.4,2.1,4.4,4.9v0.4h-7.1c0.1,1.5,1.2,2.8,3.1,2.8c0.9,0,2-0.4,2.7-1.1l0.8,1.1
		c-0.9,0.9-2.2,1.3-3.6,1.3c-2.7,0-4.6-1.9-4.6-4.7C104.4,122.7,106.2,120.6,108.9,120.6z M106.1,124.7h5.5c0-1.2-0.8-2.7-2.7-2.7
		C107.1,122,106.2,123.5,106.1,124.7z"/>
	<path d="M115.3,120.9h1.7v1.4c0.7-0.9,1.7-1.6,2.9-1.6v1.7c-0.2,0-0.4-0.1-0.6-0.1c-0.8,0-2,0.6-2.4,1.3v6.2h-1.7V120.9z"/>
	<path d="M119.8,131.6c0.6-0.4,1.2-1.1,1.3-1.7c0,0-0.2,0-0.3,0c-0.6,0-1-0.4-1-1.1c0-0.6,0.5-1.1,1.1-1.1c0.7,0,1.3,0.6,1.3,1.5
		c0,1.2-0.7,2.3-1.6,3L119.8,131.6z"/>
	<path d="M129.6,127.9v-5.5h-1.5v-1.5h1.5v-2.5h1.7v2.5h1.8v1.5h-1.8v5.2c0,0.6,0.3,1.1,0.9,1.1c0.4,0,0.7-0.2,0.9-0.4l0.4,1.3
		c-0.4,0.3-0.9,0.6-1.7,0.6C130.4,130.1,129.6,129.3,129.6,127.9z"/>
	<path d="M134.4,125.3c0-2.6,1.7-4.7,4.5-4.7c2.8,0,4.5,2.1,4.5,4.7c0,2.6-1.7,4.7-4.5,4.7C136.2,130.1,134.4,127.9,134.4,125.3z
		 M141.8,125.3c0-1.7-1-3.2-2.8-3.2c-1.8,0-2.8,1.5-2.8,3.2c0,1.7,1,3.2,2.8,3.2C140.8,128.6,141.8,127.1,141.8,125.3z"/>
	<path d="M151.7,128.6c-0.7,0.7-1.8,1.5-3.2,1.5c-1.9,0-2.9-1-2.9-2.9v-6.3h1.7v5.8c0,1.5,0.7,1.9,1.9,1.9c1,0,2-0.6,2.5-1.3v-6.5
		h1.7v9h-1.7V128.6z"/>
	<path d="M156.4,127.9v-5.5h-1.5v-1.5h1.5v-2.5h1.7v2.5h1.8v1.5H158v5.2c0,0.6,0.3,1.1,0.9,1.1c0.4,0,0.7-0.2,0.9-0.4l0.4,1.3
		c-0.4,0.3-0.9,0.6-1.7,0.6C157.1,130.1,156.4,129.3,156.4,127.9z"/>
	<path d="M166.5,127.4c0.6,0.7,1.8,1.3,3,1.3c1.3,0,1.9-0.6,1.9-1.4c0-0.9-1-1.1-2.2-1.4c-1.5-0.4-3.3-0.8-3.3-2.7
		c0-1.4,1.2-2.7,3.4-2.7c1.5,0,2.7,0.6,3.4,1.3l-0.7,1.2c-0.5-0.6-1.5-1.1-2.7-1.1c-1.1,0-1.8,0.5-1.8,1.2c0,0.8,1,1,2.1,1.2
		c1.6,0.4,3.4,0.8,3.4,2.8c0,1.5-1.3,2.8-3.6,2.8c-1.5,0-2.8-0.5-3.7-1.4L166.5,127.4z"/>
	<path d="M175,118.6c0-0.6,0.5-1.1,1.1-1.1c0.6,0,1.1,0.5,1.1,1.1c0,0.6-0.5,1.1-1.1,1.1C175.5,119.7,175,119.2,175,118.6z
		 M175.2,120.9h1.7v9h-1.7V120.9z"/>
	<path d="M190.5,123.9c0-1-0.5-1.7-1.6-1.7c-0.9,0-1.8,0.6-2.2,1.3v6.4H185v-6c0-1-0.4-1.7-1.6-1.7c-0.9,0-1.7,0.7-2.2,1.3v6.4h-1.7
		v-9h1.7v1.3c0.4-0.6,1.6-1.5,2.9-1.5c1.4,0,2.2,0.7,2.4,1.7c0.5-0.8,1.7-1.7,3-1.7c1.7,0,2.5,0.9,2.5,2.7v6.5h-1.7V123.9z"/>
	<path d="M194.8,133.3v-12.4h1.7v1.3c0.7-0.9,1.7-1.5,2.9-1.5c2.3,0,4,1.8,4,4.7c0,2.9-1.7,4.7-4,4.7c-1.2,0-2.2-0.5-2.9-1.5v4.7
		H194.8z M199,122.1c-1,0-2,0.6-2.5,1.3v3.8c0.4,0.7,1.5,1.3,2.5,1.3c1.7,0,2.7-1.4,2.7-3.2C201.7,123.5,200.7,122.1,199,122.1z"/>
	<path d="M205.6,117.4h1.7v12.4h-1.7V117.4z"/>
	<path d="M213.8,120.6c2.7,0,4.4,2.1,4.4,4.9v0.4h-7.1c0.1,1.5,1.2,2.8,3.1,2.8c0.9,0,2-0.4,2.7-1.1l0.8,1.1
		c-0.9,0.9-2.2,1.3-3.6,1.3c-2.7,0-4.6-1.9-4.6-4.7C209.3,122.7,211.2,120.6,213.8,120.6z M211.1,124.7h5.5c0-1.2-0.8-2.7-2.7-2.7
		C212,122,211.2,123.5,211.1,124.7z"/>
	<path d="M231.2,123.9c0-1-0.5-1.7-1.6-1.7c-0.9,0-1.8,0.6-2.2,1.3v6.4h-1.7v-6c0-1-0.4-1.7-1.6-1.7c-0.9,0-1.7,0.7-2.2,1.3v6.4
		h-1.7v-9h1.7v1.3c0.4-0.6,1.6-1.5,2.9-1.5c1.4,0,2.2,0.7,2.4,1.7c0.5-0.8,1.7-1.7,3-1.7c1.7,0,2.5,0.9,2.5,2.7v6.5h-1.7V123.9z"/>
	<path d="M239.5,120.6c2.7,0,4.4,2.1,4.4,4.9v0.4h-7.1c0.1,1.5,1.2,2.8,3.1,2.8c0.9,0,2-0.4,2.7-1.1l0.8,1.1
		c-0.9,0.9-2.2,1.3-3.6,1.3c-2.7,0-4.6-1.9-4.6-4.7C235,122.7,236.9,120.6,239.5,120.6z M236.8,124.7h5.5c0-1.2-0.8-2.7-2.7-2.7
		C237.7,122,236.8,123.5,236.8,124.7z"/>
	<path d="M252,124.1c0-1.5-0.8-2-1.9-2c-1,0-2,0.6-2.5,1.3v6.4H246v-9h1.7v1.3c0.6-0.7,1.8-1.5,3.2-1.5c1.9,0,2.9,1,2.9,2.9v6.3H252
		V124.1z"/>
	<path d="M256.7,127.9v-5.5h-1.5v-1.5h1.5v-2.5h1.7v2.5h1.8v1.5h-1.8v5.2c0,0.6,0.3,1.1,0.9,1.1c0.4,0,0.7-0.2,0.9-0.4l0.4,1.3
		c-0.4,0.3-0.9,0.6-1.7,0.6C257.4,130.1,256.7,129.3,256.7,127.9z"/>
</g>
</svg>
