<?xml version="1.0" encoding="utf-8"?>
<!-- Generator: Adobe Illustrator 18.0.0, SVG Export Plug-In . SVG Version: 6.00 Build 0)  -->
<!DOCTYPE svg PUBLIC "-//W3C//DTD SVG 1.1//EN" "http://www.w3.org/Graphics/SVG/1.1/DTD/svg11.dtd">
<svg version="1.1" id="Calque_1" xmlns="http://www.w3.org/2000/svg" xmlns:xlink="http://www.w3.org/1999/xlink" x="0px" y="0px"
	 viewBox="0 0 579 161" enable-background="new 0 0 579 161" xml:space="preserve">
<g>
	<g>
		<path d="M64.9,59.6v41.4H52.7V59.6h-5.2V48.2h5.2V28.9h12.2v19.4h9.5v11.4H64.9z"/>
		<path d="M81.6,48.2h12.2V53c2.2-2.3,4.2-4,6-4.8c1.8-0.9,3.9-1.4,6.3-1.4c3.2,0,6.6,1,10.1,3.1l-5.6,11.2
			c-2.3-1.7-4.6-2.5-6.8-2.5c-6.7,0-10,5-10,15.1v27.4H81.6V48.2z"/>
		<path d="M167.1,77.5h-37.9c0.3,4.3,1.7,7.8,4.2,10.4c2.5,2.5,5.7,3.8,9.6,3.8c3,0,5.5-0.7,7.5-2.2c2-1.4,4.2-4.1,6.7-8l10.3,5.7
			c-1.6,2.7-3.3,5-5,7c-1.8,1.9-3.7,3.5-5.7,4.8c-2,1.2-4.2,2.2-6.6,2.7c-2.4,0.6-4.9,0.9-7.6,0.9c-7.9,0-14.2-2.5-19-7.6
			c-4.8-5.1-7.2-11.9-7.2-20.3c0-8.4,2.3-15.1,6.9-20.3c4.7-5.1,10.8-7.6,18.5-7.6c7.8,0,13.9,2.5,18.4,7.4
			c4.5,4.9,6.7,11.7,6.7,20.4L167.1,77.5z M154.6,67.6c-1.7-6.5-5.8-9.8-12.3-9.8c-1.5,0-2.9,0.2-4.2,0.7c-1.3,0.5-2.5,1.1-3.6,2
			c-1.1,0.8-2,1.9-2.7,3.1s-1.3,2.5-1.7,4.1H154.6z"/>
		<path d="M216.1,48.2h12.3v52.8h-12.3v-5.5c-5,4.7-10.4,7-16.2,7c-7.3,0-13.3-2.6-18.1-7.9c-4.7-5.4-7.1-12.1-7.1-20.2
			c0-7.9,2.4-14.5,7.1-19.8c4.7-5.3,10.7-7.9,17.8-7.9c6.1,0,11.7,2.5,16.5,7.6V48.2z M187.1,74.5c0,5.1,1.4,9.2,4.1,12.4
			c2.8,3.2,6.3,4.8,10.5,4.8c4.5,0,8.2-1.6,11-4.7c2.8-3.2,4.2-7.3,4.2-12.3c0-5-1.4-9-4.2-12.3c-2.8-3.1-6.4-4.7-10.8-4.7
			c-4.2,0-7.7,1.6-10.5,4.8C188.5,65.8,187.1,69.8,187.1,74.5z"/>
		<path d="M271.1,57.2L261,62.6c-1.6-3.2-3.6-4.8-5.9-4.8c-1.1,0-2.1,0.4-2.9,1.1c-0.8,0.7-1.2,1.7-1.2,2.8c0,2,2.3,4,7.1,6
			c6.5,2.8,10.8,5.3,13.1,7.7c2.2,2.3,3.4,5.5,3.4,9.5c0,5.1-1.9,9.4-5.6,12.8c-3.7,3.3-8.1,4.9-13.2,4.9c-8.9,0-15.1-4.3-18.8-13
			l10.4-4.8c1.4,2.5,2.5,4.1,3.3,4.8c1.5,1.4,3.3,2.1,5.3,2.1c4.1,0,6.2-1.9,6.2-5.6c0-2.2-1.6-4.2-4.8-6.1
			c-1.2-0.6-2.5-1.2-3.7-1.8c-1.2-0.6-2.5-1.2-3.7-1.8c-3.5-1.7-6-3.5-7.5-5.2c-1.8-2.2-2.8-5-2.8-8.5c0-4.6,1.6-8.4,4.7-11.4
			c3.2-3,7.1-4.5,11.7-4.5C262.8,46.8,267.8,50.3,271.1,57.2z"/>
		<path d="M297.7,91.2l-23.8-43h14.2l16.2,30.4l15.1-30.4h13.8L291,129.8h-13.9L297.7,91.2z"/>
	</g>
	<g>
		<path d="M342.6,48.4c14.8,0,11.8-0.2,33.5,0.1c13,0.2,26.1,0.8,39,2c13.3,1.2,25.6,5.6,35.1,15.4c7.3,7.5,14,15.7,20.7,23.8
			c2.1,2.6,3.5,5.8,4.6,9c5.2,15.8-5.5,31.1-21.9,31.1c-41.7,0.1-83.3,0.1-125,0.1c-9.9,0-1,0-27.8,0l5.3-10.4
			c55.2,0,70.4,0,108.6,0c12.8,0,25.7,0,38.5-0.1c6.6-0.1,11.2-3.8,12.3-9.9c-1.7-0.1-3.5-0.1-5.2-0.1c-45.3,0-90.6-0.2-135.9-0.2
			c-4.8,0-7.3-0.2-13.2-0.2l3.4-6.9c61,0,93.7,0,146.5,0c1.2,0,2.8,0.1,5,0.1c-0.7-3.6-2.9-6.5-3.6-7.3
			c-5.6-6.3-10.9-12.2-16.8-18.2c-8-8.1-17.5-14.1-28.9-15.8c-6.7-1-13.5-1.4-20.3-1.5c-20.8-0.3-18.5-0.5-39.3-0.6
			c-9.5,0-17.4,0.1-19.9,0.2L342.6,48.4z"/>
	</g>
</g>
</svg>
